# xmcd
#
# Track frame offsets:
#	150
#	13155
#	28446
#	43341
#	60954
#	80205
#	93890
#	108842
#	123931
#	138936
#	155540
#	170817
#	183216
#	197228
#	214304
#	231409
#	246422
#	262720
#	277310
#	295967
#	311184
#	326340
#
# Disc length: 4548 seconds
#
# Revision: 1
# Processed by: cddbd v1.4PL0 Copyright (c) Steve Scherf et al.
# Submitted via: audiograbber 1.81.01
#
DISCID=5011c216
DTITLE=Various Country Artists - (Time Life) Contemporary Country - The Late 80
DTITLE='s - Pure Gold
DYEAR=1980
DGENRE=Country
TTITLE0=Dwight Yoakam And Buck Owens - Streets Of Bakersfield
TTITLE1=Patty Loveless - Blue Side Of Town
TTITLE2=Rodney Crowell - I Couldn't Leave You If I Tried
TTITLE3=Rosanne Cash - The Way We Make a Broken Heart
TTITLE4=Keith Whitley - Don't Close Your Eyes
TTITLE5=Shenandoah - The Church On Cumberland Road
TTITLE6=T. Graham Brown - Darlene
TTITLE7=Highway 101 - Somewhere Tonight
TTITLE8=Reba McEntire - The Last One To Know
TTITLE9=Randy Travis - Deeper Than The Holler
TTITLE10=Ricky Van Shelton - Living Proof
TTITLE11=Hank Williams Jr - Born To Boogie
TTITLE12=Oak Ridge Boys - This Crazy Love
TTITLE13=Southern Pacific - New Shade Of Blue
TTITLE14=Tanya Tucker - Love Me Like You Used To
TTITLE15=Steve Wariner - I Got Dreams
TTITLE16=The Judds - Change Of Heart
TTITLE17=Alabama - Song Of The South
TTITLE18=K.T. Oslin - Do Ya'
TTITLE19=The Nitty Gritty Dirt Band - I've Been Lookin'
TTITLE20=The Forester Sisters - I'd Choose You Again
TTITLE21=Michael Martin Murphey -  A Long Line Of Love
EXTD=
EXTT0=
EXTT1=
EXTT2=
EXTT3=
EXTT4=
EXTT5=
EXTT6=
EXTT7=
EXTT8=
EXTT9=
EXTT10=
EXTT11=
EXTT12=
EXTT13=
EXTT14=
EXTT15=
EXTT16=
EXTT17=
EXTT18=
EXTT19=
EXTT20=
EXTT21=
PLAYORDER=
